<svg width="31" height="31" viewBox="0 0 31 31" fill="none" xmlns="http://www.w3.org/2000/svg">
<path fill-rule="evenodd" clip-rule="evenodd" d="M15.5 31C24.0604 31 31 24.0604 31 15.5C31 6.93959 24.0604 0 15.5 0C6.93959 0 0 6.93959 0 15.5C0 24.0604 6.93959 31 15.5 31Z" fill="#FAD877"/>
<path d="M14.9999 22.7143C15.8483 22.7124 16.5721 21.9886 16.7142 21H13.2856C13.4277 21.9886 14.1516 22.7124 14.9999 22.7143Z" fill="white"/>
<path d="M20.9442 20.5135C20.9298 20.4929 19.5 18.4154 19.5 16.6923V13.6154C19.5 11.0664 17.4853 9 15 9C12.5147 9 10.5 11.0664 10.5 13.6154V16.6923C10.5 18.4154 9.07023 20.4929 9.05583 20.5135C8.99055 20.6073 8.98184 20.7307 9.03328 20.8332C9.08471 20.9356 9.18766 21 9.30003 21H20.7C20.8123 21 20.9153 20.9356 20.9667 20.8332C21.0182 20.7307 21.0095 20.6073 20.9442 20.5135Z" fill="white"/>
</svg>
