<svg width="109" height="101" viewBox="0 0 109 101" fill="none" xmlns="http://www.w3.org/2000/svg">
<path d="M51.3508 65.6155V28.2169C51.3508 26.5786 52.83 25.2507 54.5395 25.2507C56.3009 25.2507 57.7286 26.6187 57.7286 28.2169V65.5423L70.2645 53.9264C71.4815 52.7988 73.5213 52.785 74.7706 53.9422C75.9831 55.0657 76.0274 56.9689 74.7877 58.1176L57.0243 74.5773C56.948 74.6674 56.8657 74.7535 56.777 74.8357C56.1493 75.4176 55.3218 75.7034 54.4994 75.7007C53.677 75.7033 52.8495 75.4176 52.2219 74.8357C52.1332 74.7535 52.0509 74.6674 51.9746 74.5773L34.2112 58.1176C32.9715 56.9689 33.0158 55.0656 34.2282 53.9422C35.4776 52.7849 37.5174 52.7987 38.7344 53.9264L51.3508 65.6155ZM0 50.5C0 22.6097 24.4006 0 54.5 0C84.5994 0 109 22.6097 109 50.5C109 78.3903 84.5994 101 54.5 101C24.4006 101 0 78.3903 0 50.5ZM6.05568 50.5C6.05568 75.2913 27.7449 95.3886 54.4998 95.3886C81.2548 95.3886 102.944 75.2913 102.944 50.5C102.944 25.7087 81.2548 5.61139 54.4998 5.61139C27.7449 5.61139 6.05568 25.7087 6.05568 50.5Z" fill="#F16968"/>
</svg>
