<?xml version="1.0" encoding="UTF-8"?>
<svg width="100pt" height="100pt" version="1.1" viewBox="0 0 100 100" xmlns="http://www.w3.org/2000/svg">
 <g>
  <path d="m54.27 60.52h-7.0078c-0.82812 0-1.5-0.67188-1.5-1.5s0.67188-1.5 1.5-1.5h7.0078c0.82812 0 1.5 0.67188 1.5 1.5s-0.67188 1.5-1.5 1.5z"/>
  <path d="m50.312 47.66h-3.0508c-0.82812 0-1.5-0.67188-1.5-1.5s0.67188-1.5 1.5-1.5h3.0508c0.82812 0 1.5 0.67188 1.5 1.5s-0.67188 1.5-1.5 1.5z"/>
  <path d="m50.762 59.883c-0.82812 0-1.5-0.67187-1.5-1.5v-12.223c0-0.82812 0.67188-1.5 1.5-1.5s1.5 0.67188 1.5 1.5v12.223c0 0.82813-0.66797 1.5-1.5 1.5z"/>
  <path d="m52.559 41.266c0 2.5156-3.7734 2.5156-3.7734 0s3.7734-2.5156 3.7734 0"/>
  <path d="m50.762 69.539c-10.723 0-19.441-8.7227-19.441-19.441 0-10.723 8.7227-19.441 19.441-19.441 10.723 0 19.441 8.7227 19.441 19.441 0.003906 10.719-8.7188 19.441-19.441 19.441zm0-35.887c-9.0664 0-16.441 7.375-16.441 16.441s7.375 16.441 16.441 16.441c9.0664 0 16.441-7.375 16.441-16.441 0.003906-9.0664-7.375-16.441-16.441-16.441z"/>
 </g>
</svg>
