<svg width="89" height="85" viewBox="0 0 89 85" fill="none" xmlns="http://www.w3.org/2000/svg">
<path d="M9.39112 49.9942C10.0894 58.1982 9.23926 70.0907 6.83107 77.8837C6.50393 78.9611 6.6675 80.1394 7.28524 81.082C7.90298 82.0249 8.86592 82.6644 10.0283 82.9002C15.8236 84.0111 21.6731 84.5835 27.5228 84.5835C33.3727 84.5835 39.2221 84.0111 45.0173 82.9002C46.1801 82.6644 47.143 82.025 47.7604 81.0823C48.1784 80.4596 48.3962 79.7357 48.3962 78.9949C48.3962 78.6247 48.3235 78.2542 48.2146 77.884C45.806 70.0732 44.9559 58.1949 45.6716 49.9912C50.8239 48.6889 54.3551 46.6971 54.3551 43.9505C54.3551 38.4968 40.4467 36.0132 27.5238 36.0132C14.601 36.0132 0.69165 38.4971 0.69165 43.9505C0.69165 46.6997 4.23024 48.6925 9.39076 49.9944L9.39112 49.9942ZM27.5242 39.3791C42.5934 39.3791 50.7221 42.6235 50.7221 43.9498C50.7221 45.2764 42.5932 48.5214 27.5242 48.5214C12.4549 48.5214 4.32535 45.2763 4.32535 43.9498C4.32535 42.6231 12.4549 39.3791 27.5242 39.3791Z" fill="#F16A68"/>
<path d="M81.4238 49.6205C81.6963 49.755 81.9869 49.8224 82.2959 49.8224C82.4595 49.8224 82.6412 49.8056 82.8048 49.755C83.277 49.6373 83.6584 49.3509 83.8948 48.9468L88.0912 41.8434C88.5634 41.0352 88.2366 40.0084 87.3645 39.5541L59.2062 25.2971L53.2672 35.3643L81.4238 49.6205Z" fill="#F16A68"/>
<path d="M26.2879 12.5367C27.5777 12.5367 30.9023 15.6002 30.9023 16.7957C30.9023 17.7215 31.7017 18.479 32.719 18.479C33.7182 18.479 34.5357 17.7215 34.5357 16.7957C34.5357 15.6006 37.8418 12.5367 39.1317 12.5367C40.1308 12.5367 40.9483 11.7792 40.9483 10.8534C40.9483 9.92753 40.1308 9.17003 39.1317 9.17003C37.8419 9.17003 34.5357 6.10653 34.5357 4.91136C34.5357 3.98553 33.7182 3.22803 32.719 3.22803C31.7018 3.22803 30.9023 3.98553 30.9023 4.91136C30.9023 6.10644 27.5777 9.17003 26.2879 9.17003C25.2888 9.17003 24.4713 9.92753 24.4713 10.8534C24.4713 11.7792 25.2888 12.5367 26.2879 12.5367Z" fill="#F16A68"/>
<path d="M17.6588 17.7046C17.6588 19.4888 13.3349 23.4953 11.3913 23.4953C10.3921 23.4953 9.57458 24.2528 9.57458 25.1787C9.57458 26.1212 10.3921 26.862 11.3913 26.862C13.3349 26.862 17.6588 30.8852 17.6588 32.6695C17.6588 33.5953 18.4582 34.3528 19.4754 34.3528C20.4746 34.3528 21.2921 33.5953 21.2921 32.6695C21.2921 30.8852 25.6159 26.862 27.5415 26.862C28.5407 26.862 29.3582 26.1213 29.3582 25.1787C29.3582 24.2528 28.5407 23.4953 27.5415 23.4953C25.6159 23.4953 21.2921 19.4888 21.2921 17.7046C21.2921 16.7787 20.4746 16.0212 19.4754 16.0212C18.4578 16.0212 17.6588 16.7791 17.6588 17.7046Z" fill="#F16A68"/>
<path d="M37.3333 26.7271C37.4787 27.1647 37.7874 27.5185 38.2054 27.7371L50.0864 33.7465L56.0267 23.6801L44.1457 17.6708C43.2736 17.2164 42.1655 17.5192 41.6932 18.3441L37.4968 25.4476C37.2605 25.8349 37.2062 26.3064 37.3333 26.7272L37.3333 26.7271Z" fill="#F16A68"/>
<path d="M5.83229 9.72551C7.12203 9.72551 10.4286 12.789 10.4286 13.9842C10.4286 14.91 11.2461 15.6675 12.2453 15.6675C13.2445 15.6675 14.062 14.91 14.062 13.9842C14.062 12.7891 17.3681 9.72551 18.658 9.72551C19.6571 9.72551 20.4746 8.96801 20.4746 8.04217C20.4746 7.11634 19.6571 6.35884 18.658 6.35884C17.3682 6.35884 14.062 3.29534 14.062 2.09984C14.062 1.174 13.2445 0.416504 12.2453 0.416504C11.2461 0.416504 10.4286 1.174 10.4286 2.09984C10.4286 3.29492 7.12249 6.35884 5.83229 6.35884C4.83313 6.35884 4.01562 7.11634 4.01562 8.04217C4.01562 8.96801 4.83313 9.72551 5.83229 9.72551V9.72551Z" fill="#F16A68"/>
</svg>
