<svg width="1065" height="515" viewBox="0 0 1065 515" fill="none" xmlns="http://www.w3.org/2000/svg">
<rect x="335" width="730" height="515" rx="38" fill="#C4C4C4"/>
<mask id="mask0_141_98" style="mask-type:alpha" maskUnits="userSpaceOnUse" x="361" y="31" width="678" height="454">
<rect x="361" y="31" width="678" height="454" rx="3" fill="#8F8F8F"/>
</mask>
<g mask="url(#mask0_141_98)">
<rect x="361" y="31" width="678" height="454" rx="3" fill="white"/>
<g filter="url(#filter0_d_141_98)">
<rect x="361" y="31" width="678" height="40" fill="#ECECEC"/>
<rect x="385" y="41" width="19" height="19" fill="white"/>
<circle cx="426.5" cy="50.5" r="9.5" fill="white"/>
<path d="M456 41L467 60H445L456 41Z" fill="white"/>
<rect x="397" y="40" width="608" height="22" rx="10" fill="white"/>
<path fill-rule="evenodd" clip-rule="evenodd" d="M985.381 53.2403L985.381 53.8953L981.235 58.0322L980 56.7969L984.137 52.6517L984.792 52.6517L985.024 52.4279C984.212 51.4828 983.722 50.2558 983.722 48.921C983.722 45.9447 986.135 43.5322 989.111 43.5322C992.087 43.5322 994.5 45.9447 994.5 48.921C994.5 51.8973 992.087 54.3098 989.111 54.3098C987.776 54.3098 986.549 53.8207 985.604 53.0082L985.381 53.2403ZM989.111 45.1903C987.047 45.1903 985.381 46.8566 985.381 48.921C985.381 50.9853 987.047 52.6517 989.111 52.6517C991.176 52.6517 992.842 50.9853 992.842 48.921C992.842 46.8566 991.176 45.1903 989.111 45.1903Z" fill="#949494"/>
<path d="M650.817 54.144C650.209 54.144 649.673 54.012 649.209 53.748C648.745 53.484 648.377 53.116 648.105 52.644C647.841 52.172 647.709 51.632 647.709 51.024C647.709 50.416 647.841 49.876 648.105 49.404C648.377 48.932 648.745 48.564 649.209 48.3C649.673 48.036 650.209 47.904 650.817 47.904C651.577 47.904 652.217 48.104 652.737 48.504C653.257 48.896 653.589 49.44 653.733 50.136H652.113C652.033 49.848 651.873 49.624 651.633 49.464C651.401 49.296 651.125 49.212 650.805 49.212C650.381 49.212 650.021 49.372 649.725 49.692C649.429 50.012 649.281 50.456 649.281 51.024C649.281 51.592 649.429 52.036 649.725 52.356C650.021 52.676 650.381 52.836 650.805 52.836C651.125 52.836 651.401 52.756 651.633 52.596C651.873 52.436 652.033 52.208 652.113 51.912H653.733C653.589 52.584 653.257 53.124 652.737 53.532C652.217 53.94 651.577 54.144 650.817 54.144ZM657.148 54.144C656.636 54.144 656.216 54.064 655.888 53.904C655.56 53.736 655.316 53.516 655.156 53.244C654.996 52.972 654.916 52.672 654.916 52.344C654.916 51.792 655.132 51.344 655.564 51C655.996 50.656 656.644 50.484 657.508 50.484H659.02V50.34C659.02 49.932 658.904 49.632 658.672 49.44C658.44 49.248 658.152 49.152 657.808 49.152C657.496 49.152 657.224 49.228 656.992 49.38C656.76 49.524 656.616 49.74 656.56 50.028H655.06C655.1 49.596 655.244 49.22 655.492 48.9C655.748 48.58 656.076 48.336 656.476 48.168C656.876 47.992 657.324 47.904 657.82 47.904C658.668 47.904 659.336 48.116 659.824 48.54C660.312 48.964 660.556 49.564 660.556 50.34V54H659.248L659.104 53.04C658.928 53.36 658.68 53.624 658.36 53.832C658.048 54.04 657.644 54.144 657.148 54.144ZM657.496 52.944C657.936 52.944 658.276 52.8 658.516 52.512C658.764 52.224 658.92 51.868 658.984 51.444H657.676C657.268 51.444 656.976 51.52 656.8 51.672C656.624 51.816 656.536 51.996 656.536 52.212C656.536 52.444 656.624 52.624 656.8 52.752C656.976 52.88 657.208 52.944 657.496 52.944ZM662.022 54V48.048H663.39L663.534 49.164C663.75 48.78 664.042 48.476 664.41 48.252C664.786 48.02 665.226 47.904 665.73 47.904V49.524H665.298C664.962 49.524 664.662 49.576 664.398 49.68C664.134 49.784 663.926 49.964 663.774 50.22C663.63 50.476 663.558 50.832 663.558 51.288V54H662.022ZM670.308 54.144C669.86 54.144 669.468 54.06 669.132 53.892C668.796 53.724 668.524 53.488 668.316 53.184L668.148 54H666.78V45.36H668.316V48.9C668.508 48.636 668.76 48.404 669.072 48.204C669.392 48.004 669.804 47.904 670.308 47.904C670.868 47.904 671.368 48.04 671.808 48.312C672.248 48.584 672.596 48.956 672.852 49.428C673.108 49.9 673.236 50.436 673.236 51.036C673.236 51.636 673.108 52.172 672.852 52.644C672.596 53.108 672.248 53.476 671.808 53.748C671.368 54.012 670.868 54.144 670.308 54.144ZM669.984 52.8C670.472 52.8 670.876 52.636 671.196 52.308C671.516 51.98 671.676 51.556 671.676 51.036C671.676 50.516 671.516 50.088 671.196 49.752C670.876 49.416 670.472 49.248 669.984 49.248C669.488 49.248 669.08 49.416 668.76 49.752C668.448 50.08 668.292 50.504 668.292 51.024C668.292 51.544 668.448 51.972 668.76 52.308C669.08 52.636 669.488 52.8 669.984 52.8ZM677.464 54.144C676.888 54.144 676.368 54.012 675.904 53.748C675.448 53.484 675.084 53.12 674.812 52.656C674.548 52.184 674.416 51.64 674.416 51.024C674.416 50.408 674.552 49.868 674.824 49.404C675.096 48.932 675.46 48.564 675.916 48.3C676.38 48.036 676.9 47.904 677.476 47.904C678.044 47.904 678.556 48.036 679.012 48.3C679.476 48.564 679.84 48.932 680.104 49.404C680.376 49.868 680.512 50.408 680.512 51.024C680.512 51.64 680.376 52.184 680.104 52.656C679.84 53.12 679.476 53.484 679.012 53.748C678.548 54.012 678.032 54.144 677.464 54.144ZM677.464 52.812C677.864 52.812 678.212 52.664 678.508 52.368C678.804 52.064 678.952 51.616 678.952 51.024C678.952 50.432 678.804 49.988 678.508 49.692C678.212 49.388 677.868 49.236 677.476 49.236C677.068 49.236 676.716 49.388 676.42 49.692C676.132 49.988 675.988 50.432 675.988 51.024C675.988 51.616 676.132 52.064 676.42 52.368C676.716 52.664 677.064 52.812 677.464 52.812ZM681.885 54V48.048H683.241L683.361 49.056C683.545 48.704 683.809 48.424 684.153 48.216C684.505 48.008 684.917 47.904 685.389 47.904C686.125 47.904 686.697 48.136 687.105 48.6C687.513 49.064 687.717 49.744 687.717 50.64V54H686.181V50.784C686.181 50.272 686.077 49.88 685.869 49.608C685.661 49.336 685.337 49.2 684.897 49.2C684.465 49.2 684.109 49.352 683.829 49.656C683.557 49.96 683.421 50.384 683.421 50.928V54H681.885ZM689.846 54.084C689.566 54.084 689.334 53.996 689.15 53.82C688.974 53.644 688.886 53.432 688.886 53.184C688.886 52.928 688.974 52.712 689.15 52.536C689.334 52.36 689.566 52.272 689.846 52.272C690.126 52.272 690.354 52.36 690.53 52.536C690.714 52.712 690.806 52.928 690.806 53.184C690.806 53.432 690.714 53.644 690.53 53.82C690.354 53.996 690.126 54.084 689.846 54.084ZM692.069 54V48.048H693.437L693.581 49.164C693.797 48.78 694.089 48.476 694.457 48.252C694.833 48.02 695.273 47.904 695.777 47.904V49.524H695.345C695.009 49.524 694.709 49.576 694.445 49.68C694.181 49.784 693.973 49.964 693.821 50.22C693.677 50.476 693.605 50.832 693.605 51.288V54H692.069ZM699.613 54.144C699.013 54.144 698.481 54.016 698.017 53.76C697.553 53.504 697.189 53.144 696.925 52.68C696.661 52.216 696.529 51.68 696.529 51.072C696.529 50.456 696.657 49.908 696.913 49.428C697.177 48.948 697.537 48.576 697.993 48.312C698.457 48.04 699.001 47.904 699.625 47.904C700.209 47.904 700.725 48.032 701.173 48.288C701.621 48.544 701.969 48.896 702.217 49.344C702.473 49.784 702.601 50.276 702.601 50.82C702.601 50.908 702.597 51 702.589 51.096C702.589 51.192 702.585 51.292 702.577 51.396H698.053C698.085 51.86 698.245 52.224 698.533 52.488C698.829 52.752 699.185 52.884 699.601 52.884C699.913 52.884 700.173 52.816 700.381 52.68C700.597 52.536 700.757 52.352 700.861 52.128H702.421C702.309 52.504 702.121 52.848 701.857 53.16C701.601 53.464 701.281 53.704 700.897 53.88C700.521 54.056 700.093 54.144 699.613 54.144ZM699.625 49.152C699.249 49.152 698.917 49.26 698.629 49.476C698.341 49.684 698.157 50.004 698.077 50.436H701.041C701.017 50.044 700.873 49.732 700.609 49.5C700.345 49.268 700.017 49.152 699.625 49.152ZM706.629 54.144C706.069 54.144 705.569 54.008 705.129 53.736C704.689 53.464 704.341 53.092 704.085 52.62C703.829 52.148 703.701 51.612 703.701 51.012C703.701 50.412 703.829 49.88 704.085 49.416C704.341 48.944 704.689 48.576 705.129 48.312C705.569 48.04 706.069 47.904 706.629 47.904C707.077 47.904 707.469 47.988 707.805 48.156C708.141 48.324 708.413 48.56 708.621 48.864V45.36H710.157V54H708.789L708.621 53.148C708.429 53.412 708.173 53.644 707.853 53.844C707.541 54.044 707.133 54.144 706.629 54.144ZM706.953 52.8C707.449 52.8 707.853 52.636 708.165 52.308C708.485 51.972 708.645 51.544 708.645 51.024C708.645 50.504 708.485 50.08 708.165 49.752C707.853 49.416 707.449 49.248 706.953 49.248C706.465 49.248 706.061 49.412 705.741 49.74C705.421 50.068 705.261 50.492 705.261 51.012C705.261 51.532 705.421 51.96 705.741 52.296C706.061 52.632 706.465 52.8 706.953 52.8ZM712.549 47.124C712.269 47.124 712.037 47.04 711.853 46.872C711.677 46.704 711.589 46.492 711.589 46.236C711.589 45.98 711.677 45.772 711.853 45.612C712.037 45.444 712.269 45.36 712.549 45.36C712.829 45.36 713.057 45.444 713.233 45.612C713.417 45.772 713.509 45.98 713.509 46.236C713.509 46.492 713.417 46.704 713.233 46.872C713.057 47.04 712.829 47.124 712.549 47.124ZM711.781 54V48.048H713.317V54H711.781ZM715.581 54.084C715.301 54.084 715.069 53.996 714.885 53.82C714.709 53.644 714.621 53.432 714.621 53.184C714.621 52.928 714.709 52.712 714.885 52.536C715.069 52.36 715.301 52.272 715.581 52.272C715.861 52.272 716.089 52.36 716.265 52.536C716.449 52.712 716.541 52.928 716.541 53.184C716.541 53.432 716.449 53.644 716.265 53.82C716.089 53.996 715.861 54.084 715.581 54.084ZM717.803 54V45.36H719.339V48.96C719.539 48.632 719.807 48.376 720.143 48.192C720.487 48 720.879 47.904 721.319 47.904C722.055 47.904 722.623 48.136 723.023 48.6C723.431 49.064 723.635 49.744 723.635 50.64V54H722.111V50.784C722.111 50.272 722.007 49.88 721.799 49.608C721.599 49.336 721.279 49.2 720.839 49.2C720.407 49.2 720.047 49.352 719.759 49.656C719.479 49.96 719.339 50.384 719.339 50.928V54H717.803ZM727.996 54.144C727.396 54.144 726.864 54.016 726.4 53.76C725.936 53.504 725.572 53.144 725.308 52.68C725.044 52.216 724.912 51.68 724.912 51.072C724.912 50.456 725.04 49.908 725.296 49.428C725.56 48.948 725.92 48.576 726.376 48.312C726.84 48.04 727.384 47.904 728.008 47.904C728.592 47.904 729.108 48.032 729.556 48.288C730.004 48.544 730.352 48.896 730.6 49.344C730.856 49.784 730.984 50.276 730.984 50.82C730.984 50.908 730.98 51 730.972 51.096C730.972 51.192 730.968 51.292 730.96 51.396H726.436C726.468 51.86 726.628 52.224 726.916 52.488C727.212 52.752 727.568 52.884 727.984 52.884C728.296 52.884 728.556 52.816 728.764 52.68C728.98 52.536 729.14 52.352 729.244 52.128H730.804C730.692 52.504 730.504 52.848 730.24 53.16C729.984 53.464 729.664 53.704 729.28 53.88C728.904 54.056 728.476 54.144 727.996 54.144ZM728.008 49.152C727.632 49.152 727.3 49.26 727.012 49.476C726.724 49.684 726.54 50.004 726.46 50.436H729.424C729.4 50.044 729.256 49.732 728.992 49.5C728.728 49.268 728.4 49.152 728.008 49.152ZM734.328 54.144C733.816 54.144 733.396 54.064 733.068 53.904C732.74 53.736 732.496 53.516 732.336 53.244C732.176 52.972 732.096 52.672 732.096 52.344C732.096 51.792 732.312 51.344 732.744 51C733.176 50.656 733.824 50.484 734.688 50.484H736.2V50.34C736.2 49.932 736.084 49.632 735.852 49.44C735.62 49.248 735.332 49.152 734.988 49.152C734.676 49.152 734.404 49.228 734.172 49.38C733.94 49.524 733.796 49.74 733.74 50.028H732.24C732.28 49.596 732.424 49.22 732.672 48.9C732.928 48.58 733.256 48.336 733.656 48.168C734.056 47.992 734.504 47.904 735 47.904C735.848 47.904 736.516 48.116 737.004 48.54C737.492 48.964 737.736 49.564 737.736 50.34V54H736.428L736.284 53.04C736.108 53.36 735.86 53.624 735.54 53.832C735.228 54.04 734.824 54.144 734.328 54.144ZM734.676 52.944C735.116 52.944 735.456 52.8 735.696 52.512C735.944 52.224 736.1 51.868 736.164 51.444H734.856C734.448 51.444 734.156 51.52 733.98 51.672C733.804 51.816 733.716 51.996 733.716 52.212C733.716 52.444 733.804 52.624 733.98 52.752C734.156 52.88 734.388 52.944 734.676 52.944ZM739.202 54V45.36H740.738V54H739.202ZM744.959 54C744.335 54 743.835 53.848 743.459 53.544C743.083 53.24 742.895 52.7 742.895 51.924V49.332H741.875V48.048H742.895L743.075 46.452H744.431V48.048H746.039V49.332H744.431V51.936C744.431 52.224 744.491 52.424 744.611 52.536C744.739 52.64 744.955 52.692 745.259 52.692H746.003V54H744.959ZM747.358 54V45.36H748.894V48.96C749.094 48.632 749.362 48.376 749.698 48.192C750.042 48 750.434 47.904 750.874 47.904C751.61 47.904 752.178 48.136 752.578 48.6C752.986 49.064 753.19 49.744 753.19 50.64V54H751.666V50.784C751.666 50.272 751.562 49.88 751.354 49.608C751.154 49.336 750.834 49.2 750.394 49.2C749.962 49.2 749.602 49.352 749.314 49.656C749.034 49.96 748.894 50.384 748.894 50.928V54H747.358Z" fill="#949494"/>
</g>
</g>
<rect x="645" y="11" width="121" height="9" rx="4.5" fill="#989898"/>
<circle cx="779.5" cy="15.5" r="4.5" fill="#989898"/>
<circle cx="620.5" cy="15.5" r="4.5" fill="#989898"/>
<path d="M15 42H285V480C285 491.598 275.598 501 264 501H36C24.402 501 15 491.598 15 480V42Z" fill="white"/>
<path d="M12 38C12 23.0883 24.0883 11 39 11H262C276.912 11 289 23.0883 289 38V42H12V38Z" fill="white"/>
<path d="M135 11H165V22C165 30.2843 158.284 37 150 37V37C141.716 37 135 30.2843 135 22V11Z" fill="#C4C4C4"/>
<rect x="10" y="10" width="280" height="495" rx="47" stroke="#C4C4C4" stroke-width="20"/>
<defs>
<filter id="filter0_d_141_98" x="349" y="23" width="702" height="64" filterUnits="userSpaceOnUse" color-interpolation-filters="sRGB">
<feFlood flood-opacity="0" result="BackgroundImageFix"/>
<feColorMatrix in="SourceAlpha" type="matrix" values="0 0 0 0 0 0 0 0 0 0 0 0 0 0 0 0 0 0 127 0" result="hardAlpha"/>
<feOffset dy="4"/>
<feGaussianBlur stdDeviation="6"/>
<feColorMatrix type="matrix" values="0 0 0 0 0 0 0 0 0 0 0 0 0 0 0 0 0 0 0.14 0"/>
<feBlend mode="normal" in2="BackgroundImageFix" result="effect1_dropShadow_141_98"/>
<feBlend mode="normal" in="SourceGraphic" in2="effect1_dropShadow_141_98" result="shape"/>
</filter>
</defs>
</svg>
