<svg width="132" height="43" viewBox="0 0 132 43" fill="none" xmlns="http://www.w3.org/2000/svg">
<g clip-path="url(#clip0_1745_619)">
<path d="M1.28003 0.849976H3.46997C4.01101 0.849976 4.5299 1.06487 4.91248 1.44745C5.29505 1.83002 5.51001 2.34891 5.51001 2.88995C5.51001 3.431 5.29505 3.94988 4.91248 4.33246C4.5299 4.71503 4.01101 4.92999 3.46997 4.92999H2.46997V6.92999H1.25L1.28003 0.849976ZM3.46997 3.84998C3.71397 3.84998 3.94795 3.75304 4.12048 3.58051C4.29302 3.40797 4.39001 3.17399 4.39001 2.92999C4.39001 2.68599 4.29302 2.45195 4.12048 2.27942C3.94795 2.10689 3.71397 2.00995 3.46997 2.00995H2.46997V3.84998H3.46997Z" fill="#201F1B"/>
<path d="M6.61928 3.89994C6.61334 3.27569 6.79303 2.66377 7.13552 2.14182C7.47801 1.61988 7.96783 1.21145 8.54287 0.968423C9.11791 0.7254 9.75225 0.65876 10.3653 0.776894C10.9783 0.895029 11.5423 1.19262 11.9859 1.63194C12.4294 2.07125 12.7323 2.63246 12.8563 3.2443C12.9803 3.85615 12.9198 4.49106 12.6823 5.0684C12.4448 5.64574 12.041 6.13944 11.5224 6.48692C11.0037 6.83439 10.3936 7.01991 9.76931 7.01994C9.35633 7.02661 8.94611 6.95073 8.56289 6.79667C8.17966 6.64261 7.83107 6.4135 7.53762 6.12284C7.24417 5.83219 7.01186 5.48583 6.85415 5.1041C6.69643 4.72237 6.61656 4.31296 6.61928 3.89994V3.89994ZM9.76931 5.89994C10.1679 5.9159 10.5621 5.8123 10.9014 5.60246C11.2406 5.39262 11.5094 5.08615 11.6731 4.72239C11.8368 4.35863 11.888 3.95422 11.8201 3.56114C11.7522 3.16805 11.5683 2.80428 11.292 2.51652C11.0158 2.22875 10.6598 2.03014 10.2698 1.94627C9.87981 1.86239 9.47367 1.89702 9.10354 2.04575C8.7334 2.19449 8.41615 2.45052 8.19265 2.78092C7.96914 3.11133 7.84958 3.50104 7.84926 3.89994C7.83988 4.15838 7.88248 4.41606 7.97463 4.65769C8.06678 4.89933 8.20667 5.12 8.38576 5.30656C8.56486 5.49312 8.77956 5.64175 9.01723 5.74369C9.25491 5.84563 9.5107 5.89877 9.76931 5.89994" fill="#201F1B"/>
<path d="M13.6299 0.859985H14.8999L16.1999 5.51999L17.5599 0.859985H18.8999L20.2599 5.51999L21.5699 0.859985H22.8099L20.9899 6.92999H19.5199L18.2199 2.59999L16.9199 6.92999H15.4499L13.6299 0.859985Z" fill="#201F1B"/>
<path d="M24.0195 0.859985H27.7395V1.99998H25.2195V3.29998H27.5095V4.42999H25.2195V5.77999H27.7795V6.92999H24.0195V0.859985Z" fill="#201F1B"/>
<path d="M29.4296 0.849976H31.4296C32.9996 0.849976 33.5996 1.77998 33.5996 2.72998C33.6174 3.09932 33.5264 3.46577 33.338 3.78394C33.1496 4.1021 32.872 4.358 32.5396 4.51996L33.8696 6.92999H32.4796L31.2797 4.69H30.5496V6.92999H29.3896L29.4296 0.849976ZM31.5396 3.75C31.7835 3.75 32.0177 3.65306 32.1902 3.48053C32.3627 3.308 32.4596 3.07396 32.4596 2.82996C32.4596 2.58596 32.3627 2.35198 32.1902 2.17944C32.0177 2.00691 31.7835 1.90997 31.5396 1.90997H30.5396V3.75H31.5396Z" fill="#201F1B"/>
<path d="M35.29 0.859985H39.0201V1.99998H36.4901V3.29998H38.79V4.42999H36.4901V5.77999H39.06V6.92999H35.29V0.859985Z" fill="#201F1B"/>
<path d="M40.71 0.849976H43.0599C43.8662 0.849976 44.6395 1.17025 45.2096 1.74036C45.7797 2.31047 46.1 3.0837 46.1 3.88995C46.1 4.69621 45.7797 5.46944 45.2096 6.03955C44.6395 6.60966 43.8662 6.92999 43.0599 6.92999H40.71V0.849976ZM43.0599 5.77997C43.5387 5.74516 43.9867 5.53038 44.3136 5.17883C44.6405 4.82728 44.8223 4.36501 44.8223 3.88495C44.8223 3.40488 44.6405 2.94261 44.3136 2.59106C43.9867 2.23952 43.5387 2.02479 43.0599 1.98999H41.9199V5.77997H43.0599Z" fill="#201F1B"/>
<path d="M49.9395 0.849988H52.3495C52.5857 0.832179 52.8231 0.863077 53.0469 0.940748C53.2707 1.01842 53.476 1.14121 53.6504 1.30153C53.8248 1.46184 53.9644 1.65628 54.0605 1.87275C54.1567 2.08923 54.2074 2.32315 54.2095 2.56001C54.2161 2.79372 54.1681 3.02574 54.0691 3.23756C53.9701 3.44939 53.823 3.63512 53.6395 3.77998C53.8889 3.91099 54.0957 4.11042 54.2356 4.35487C54.3755 4.59932 54.4427 4.87863 54.4294 5.15999C54.4285 5.40245 54.3781 5.64218 54.2812 5.86445C54.1844 6.08673 54.0432 6.28685 53.8662 6.45259C53.6892 6.61833 53.4803 6.74617 53.2522 6.82826C53.0241 6.91035 52.7814 6.94499 52.5394 6.93001H49.9595L49.9395 0.849988ZM52.3295 3.3C52.4169 3.30278 52.504 3.28757 52.5853 3.25538C52.6667 3.2232 52.7405 3.17472 52.8024 3.11287C52.8642 3.05102 52.9128 2.97716 52.9449 2.89583C52.9771 2.81449 52.9923 2.72739 52.9895 2.63997C52.9936 2.55127 52.9795 2.46269 52.948 2.37965C52.9165 2.29662 52.8685 2.22089 52.8066 2.15718C52.7448 2.09346 52.6706 2.04308 52.5885 2.00917C52.5064 1.97525 52.4182 1.95851 52.3295 1.95997H51.1395V3.3H52.3295ZM52.5195 5.8C52.6144 5.80284 52.7088 5.78605 52.7969 5.75075C52.885 5.71544 52.9649 5.66238 53.0315 5.5948C53.0981 5.52723 53.1501 5.44662 53.1842 5.35805C53.2183 5.26947 53.2337 5.17478 53.2295 5.07997C53.2338 4.9856 53.2183 4.89137 53.1841 4.8033C53.1499 4.71522 53.0978 4.63523 53.031 4.56843C52.9642 4.50163 52.8842 4.44953 52.7961 4.41536C52.7081 4.38118 52.6139 4.36574 52.5195 4.37001H51.1395V5.84999L52.5195 5.8Z" fill="#201F1B"/>
<path d="M57.35 4.52999L55 0.859985H56.43L57.96 3.42999L59.49 0.859985H60.87L58.56 4.53999V6.92999H57.35V4.52999Z" fill="#201F1B"/>
<path d="M14.7996 37.54C16.8545 37.579 18.8663 36.9471 20.5297 35.74V31.25H15.0396V27.25H25.1696V37.85C23.8039 39.1952 22.1829 40.2537 20.402 40.963C18.6211 41.6723 16.7162 42.018 14.7996 41.98C6.33959 41.98 0.969638 35.98 0.969638 28.6C0.916712 26.8243 1.22832 25.0566 1.88517 23.406C2.54201 21.7554 3.53011 20.257 4.78861 19.0032C6.04711 17.7493 7.54928 16.7668 9.2023 16.1161C10.8553 15.4654 12.6242 15.1604 14.3997 15.22C16.2253 15.173 18.0394 15.5204 19.7185 16.2383C21.3977 16.9562 22.9023 18.0278 24.1297 19.38L20.7296 22.75C19.9712 21.8025 19.0071 21.0401 17.9104 20.5203C16.8137 20.0005 15.6132 19.7371 14.3997 19.75C13.2507 19.7617 12.1155 20.0006 11.0592 20.4529C10.003 20.9053 9.04676 21.5622 8.24552 22.3857C7.44427 23.2093 6.81386 24.1832 6.39066 25.2514C5.96746 26.3197 5.75985 27.4611 5.7797 28.61C5.75518 29.7986 5.97121 30.9799 6.41483 32.0829C6.85844 33.1859 7.52046 34.1878 8.36112 35.0285C9.20178 35.8691 10.2037 36.5312 11.3067 36.9748C12.4097 37.4184 13.5911 37.6345 14.7797 37.61" fill="black"/>
<path d="M37.8297 41.99C35.8691 41.9663 33.9592 41.3633 32.3405 40.2568C30.7217 39.1503 29.4664 37.5897 28.7324 35.7715C27.9985 33.9532 27.8186 31.9585 28.2156 30.0383C28.6126 28.1181 29.5686 26.3582 30.9634 24.9801C32.3582 23.6019 34.1294 22.667 36.0542 22.2931C37.9791 21.9192 39.9715 22.123 41.7808 22.8787C43.5901 23.6344 45.1356 24.9084 46.2226 26.5403C47.3096 28.1722 47.8897 30.0892 47.8898 32.05C47.8819 33.3632 47.6154 34.662 47.1056 35.8723C46.5958 37.0825 45.8526 38.1805 44.9185 39.1035C43.9843 40.0266 42.8774 40.7565 41.6612 41.2518C40.4449 41.7471 39.143 41.9979 37.8297 41.99ZM37.8297 37.66C38.941 37.6679 40.0295 37.3456 40.9573 36.734C41.8851 36.1224 42.6104 35.2491 43.0412 34.2247C43.4719 33.2003 43.5887 32.0711 43.3767 30.9803C43.1648 29.8894 42.6337 28.8861 41.8507 28.0975C41.0678 27.3089 40.0683 26.7707 38.979 26.5509C37.8897 26.3312 36.7596 26.4399 35.7322 26.8633C34.7048 27.2867 33.8263 28.0058 33.208 28.9292C32.5898 29.8526 32.2598 30.9388 32.2598 32.05C32.2572 32.7841 32.3991 33.5115 32.6776 34.1907C32.9561 34.8699 33.3656 35.4876 33.8828 36.0086C34.4001 36.5295 35.0148 36.9435 35.692 37.2268C36.3693 37.5102 37.0956 37.6574 37.8297 37.66" fill="black"/>
<path d="M59.5397 41.99C57.579 41.9663 55.6692 41.3633 54.0504 40.2568C52.4317 39.1503 51.1764 37.5897 50.4424 35.7715C49.7084 33.9532 49.5286 31.9585 49.9256 30.0383C50.3225 28.1181 51.2786 26.3582 52.6734 24.9801C54.0682 23.6019 55.8395 22.667 57.7643 22.2931C59.6891 21.9192 61.6816 22.123 63.4909 22.8787C65.3002 23.6344 66.8455 24.9084 67.9325 26.5403C69.0195 28.1722 69.5996 30.0892 69.5998 32.05C69.5919 33.3632 69.3255 34.662 68.8157 35.8723C68.3059 37.0825 67.5626 38.1805 66.6284 39.1035C65.6943 40.0266 64.5875 40.7565 63.3712 41.2518C62.155 41.7471 60.8529 41.9979 59.5397 41.99V41.99ZM59.5397 37.66C60.6509 37.6679 61.7396 37.3456 62.6674 36.734C63.5952 36.1224 64.3204 35.2491 64.7511 34.2247C65.1819 33.2003 65.2987 32.0711 65.0868 30.9803C64.8749 29.8894 64.3438 28.8861 63.5608 28.0975C62.7779 27.3089 61.7783 26.7707 60.689 26.5509C59.5997 26.3312 58.4697 26.4399 57.4423 26.8633C56.4149 27.2867 55.5363 28.0058 54.9181 28.9292C54.2999 29.8526 53.9698 30.9388 53.9698 32.05C53.9671 32.7841 54.1091 33.5115 54.3876 34.1907C54.6661 34.8699 55.0757 35.4876 55.5929 36.0086C56.1101 36.5295 56.7249 36.9435 57.4021 37.2268C58.0793 37.5102 58.8056 37.6574 59.5397 37.66" fill="black"/>
<path d="M86.8195 15.59H91.3495V41.59H86.8595V39.59C86.0953 40.3593 85.1825 40.9652 84.1769 41.3709C83.1712 41.7766 82.0937 41.9736 81.0095 41.95C78.4292 41.8681 75.9819 40.7855 74.1855 38.9313C72.3892 37.077 71.3848 34.5966 71.3848 32.015C71.3848 29.4333 72.3892 26.9529 74.1855 25.0987C75.9819 23.2445 78.4292 22.1618 81.0095 22.08C82.0937 22.0563 83.1712 22.2534 84.1769 22.6591C85.1825 23.0648 86.0953 23.6707 86.8595 24.44L86.8195 15.59ZM81.2595 26.44C80.1479 26.4301 79.0584 26.7506 78.1293 27.361C77.2002 27.9714 76.4733 28.844 76.041 29.8682C75.6087 30.8924 75.4905 32.022 75.7013 33.1135C75.9121 34.205 76.4423 35.2093 77.2249 35.9988C78.0074 36.7884 79.007 37.3277 80.0966 37.5482C81.1861 37.7688 82.3166 37.6606 83.3446 37.2375C84.3726 36.8145 85.2518 36.0955 85.8705 35.1719C86.4892 34.2483 86.8194 33.1617 86.8195 32.05C86.8248 30.5691 86.2424 29.1467 85.2 28.0949C84.1575 27.0431 82.7403 26.4479 81.2595 26.44" fill="black"/>
<path d="M110.059 41.59L104.059 31.29H98.9294V41.59H95.7695V15.59H103.859C110.109 15.59 112.859 19.03 112.859 23.36C112.859 26.97 111.02 29.89 107.38 30.89L113.66 41.59H110.059ZM98.8795 28.69H103.969C107.809 28.69 109.699 26.69 109.699 23.6C109.699 20.51 107.809 18.5099 103.969 18.5099H98.8795V28.69Z" fill="black"/>
<path d="M121.279 31.73L114.629 22.56H118.189L123.079 29.29L127.969 22.56H131.529L124.879 31.77L132.059 41.59H128.449L123.039 34.22L117.709 41.59H114.109L121.279 31.73Z" fill="black"/>
</g>
<defs>
<clipPath id="clip0_1745_619">
<rect width="132" height="43" fill="white"/>
</clipPath>
</defs>
</svg>
