<svg width="607" height="155" viewBox="0 0 607 155" fill="none" xmlns="http://www.w3.org/2000/svg">
<path fill-rule="evenodd" clip-rule="evenodd" d="M152.996 76.8561L152.999 77.2462L152.996 76.8688V76.8561ZM153 76.4132L152.996 76.8561L152.992 76.4128L153 76.4132ZM65.7665 72.7417V36.2964H88.0876C98.1702 36.2964 106.372 44.4703 106.372 54.5189C106.372 64.567 98.1702 72.7421 88.0876 72.7421L65.7665 72.7417ZM77.5 2C35.8689 2 2 35.7548 2 77.2462C2 106.626 19.8068 133.874 46.5294 146.122C77.619 160.372 115.494 151.916 137.616 125.974L131.818 121.059C118.553 136.615 99.212 145.537 78.7537 145.537C45.3226 145.537 14.6468 119.512 9.99699 86.3974C5.626 55.2657 24.3909 24.455 53.8635 13.5562C61.4131 10.7642 69.4489 9.34323 77.5 9.34323C114.93 9.34323 145.407 39.5808 145.629 76.8349C145.402 91.6448 133.243 103.622 118.33 103.622C104.459 103.622 92.9697 93.2578 91.2518 79.8913C103.91 78.3329 113.74 67.5483 113.74 54.5189C113.74 40.4215 102.233 28.9523 88.0876 28.9523H60.3353C46.1905 28.9523 34.6829 40.4215 34.6829 54.5189C34.6829 60.6891 36.9391 66.6565 41.0365 71.3224L46.581 66.4868C43.6604 63.16 42.0514 58.9095 42.0514 54.5189C42.0514 45.1225 49.2233 37.3651 58.3987 36.3978V117.669H65.7665V80.0846L83.856 80.0854C85.7017 97.4177 100.458 110.966 118.33 110.966C137.168 110.966 152.544 95.9156 152.999 77.2462C152.999 35.7548 119.13 2 77.5 2V2Z" fill="#EF5350"/>
<path d="M152.996 76.8561L154.496 76.8437L151.496 76.8561H152.996ZM152.999 77.2462L151.499 77.259L154.499 77.2339L152.999 77.2462ZM152.996 76.8688L151.496 76.8688L151.496 76.8816L152.996 76.8688ZM153 76.4132L154.5 76.4267L154.513 74.9905L153.079 74.9152L153 76.4132ZM152.996 76.8561L151.496 76.8683L154.496 76.8696L152.996 76.8561ZM152.992 76.4128L153.071 74.9148L151.479 74.8313L151.492 76.425L152.992 76.4128ZM65.7665 72.7417H64.2665V74.2417L65.7664 74.2417L65.7665 72.7417ZM65.7665 36.2964V34.7964H64.2665V36.2964H65.7665ZM88.0876 72.7421L88.0876 74.2421H88.0876V72.7421ZM46.5294 146.122L47.1544 144.759L47.1544 144.759L46.5294 146.122ZM137.616 125.974L138.757 126.948L139.733 125.803L138.586 124.83L137.616 125.974ZM131.818 121.059L132.788 119.915L131.647 118.948L130.677 120.086L131.818 121.059ZM9.99699 86.3974L8.51156 86.606L8.51156 86.606L9.99699 86.3974ZM53.8635 13.5562L54.3838 14.9631L54.3838 14.9631L53.8635 13.5562ZM145.629 76.8349L147.128 76.8579L147.129 76.8419L147.129 76.826L145.629 76.8349ZM91.2518 79.8913L91.0685 78.4025L89.5718 78.5868L89.7641 80.0825L91.2518 79.8913ZM41.0365 71.3224L39.9094 72.3122L40.8958 73.4354L42.0224 72.4528L41.0365 71.3224ZM46.581 66.4868L47.567 67.6173L48.7012 66.6281L47.7083 65.4972L46.581 66.4868ZM58.3987 36.3978H59.8987V34.7314L58.2414 34.9061L58.3987 36.3978ZM58.3987 117.669H56.8987V119.169H58.3987V117.669ZM65.7665 117.669V119.169H67.2665V117.669H65.7665ZM65.7665 80.0846L65.7665 78.5846L64.2665 78.5845V80.0846H65.7665ZM83.856 80.0854L85.3476 79.9265L85.2048 78.5854L83.8561 78.5854L83.856 80.0854ZM152.999 77.2462L154.499 77.2828L154.499 77.2645V77.2462H152.999ZM151.496 76.8684L151.499 77.2586L154.499 77.2339L154.496 76.8437L151.496 76.8684ZM154.499 77.2335L154.496 76.8561L151.496 76.8816L151.499 77.259L154.499 77.2335ZM154.496 76.8688V76.8561H151.496V76.8688H154.496ZM151.5 76.3996L151.496 76.8425L154.496 76.8696L154.5 76.4267L151.5 76.3996ZM154.496 76.8439L154.492 76.4006L151.492 76.425L151.496 76.8683L154.496 76.8439ZM152.914 77.9107L152.921 77.9111L153.079 74.9152L153.071 74.9148L152.914 77.9107ZM67.2665 72.7417V36.2964H64.2665V72.7417H67.2665ZM65.7665 37.7964H88.0876V34.7964H65.7665V37.7964ZM88.0876 37.7964C97.3465 37.7964 104.872 45.3035 104.872 54.5189H107.872C107.872 43.6371 98.9938 34.7964 88.0876 34.7964V37.7964ZM104.872 54.5189C104.872 63.7339 97.3464 71.2421 88.0876 71.2421V74.2421C98.9939 74.2421 107.872 65.4001 107.872 54.5189H104.872ZM88.0877 71.2421L65.7665 71.2417L65.7664 74.2417L88.0876 74.2421L88.0877 71.2421ZM77.5 0.5C35.0452 0.5 0.5 34.9216 0.5 77.2462H3.5C3.5 36.588 36.6925 3.5 77.5 3.5V0.5ZM0.5 77.2462C0.5 107.223 18.659 134.998 45.9044 147.486L47.1544 144.759C20.9545 132.75 3.5 106.028 3.5 77.2462H0.5ZM45.9044 147.486C77.6056 162.016 116.202 153.398 138.757 126.948L136.474 125.001C114.787 150.434 77.6323 158.728 47.1544 144.759L45.9044 147.486ZM138.586 124.83L132.788 119.915L130.848 122.203L136.646 127.118L138.586 124.83ZM130.677 120.086C117.697 135.307 98.7731 144.037 78.7537 144.037V147.037C99.6508 147.037 119.409 137.923 132.96 122.033L130.677 120.086ZM78.7537 144.037C46.0508 144.037 16.0255 118.544 11.4824 86.1889L8.51156 86.606C13.268 120.481 44.5944 147.037 78.7537 147.037V144.037ZM11.4824 86.1889C7.21127 55.7682 25.5606 25.6217 54.3838 14.9631L53.3432 12.1493C23.2211 23.2883 4.04074 54.7632 8.51156 86.606L11.4824 86.1889ZM54.3838 14.9631C61.7648 12.2334 69.6243 10.8432 77.5 10.8432V7.84323C69.2735 7.84323 61.0614 9.29497 53.3432 12.1493L54.3838 14.9631ZM77.5 10.8432C114.109 10.8432 143.912 40.4188 144.129 76.8438L147.129 76.826C146.902 38.7427 115.751 7.84323 77.5 7.84323V10.8432ZM144.129 76.8119C143.914 90.7991 132.427 102.122 118.33 102.122V105.122C134.06 105.122 146.889 92.4904 147.128 76.8579L144.129 76.8119ZM118.33 102.122C105.22 102.122 94.3621 92.3247 92.7396 79.7001L89.7641 80.0825C91.5773 94.1909 103.698 105.122 118.33 105.122V102.122ZM91.4351 81.38C104.831 79.7309 115.24 68.3199 115.24 54.5189H112.24C112.24 66.7768 102.989 76.935 91.0685 78.4025L91.4351 81.38ZM115.24 54.5189C115.24 39.5883 103.056 27.4523 88.0876 27.4523V30.4523C101.409 30.4523 112.24 41.2546 112.24 54.5189H115.24ZM88.0876 27.4523H60.3353V30.4523H88.0876V27.4523ZM60.3353 27.4523C45.3668 27.4523 33.1829 39.5883 33.1829 54.5189H36.1829C36.1829 41.2546 47.0142 30.4523 60.3353 30.4523V27.4523ZM33.1829 54.5189C33.1829 61.0559 35.5733 67.3745 39.9094 72.3122L42.1636 70.3326C38.3049 65.9386 36.1829 60.3224 36.1829 54.5189H33.1829ZM42.0224 72.4528L47.567 67.6173L45.5951 65.3563L40.0506 70.1919L42.0224 72.4528ZM47.7083 65.4972C45.0256 62.4416 43.5514 58.542 43.5514 54.5189H40.5514C40.5514 59.2771 42.2951 63.8785 45.4538 67.4764L47.7083 65.4972ZM43.5514 54.5189C43.5514 45.9029 50.1311 38.7777 58.556 37.8895L58.2414 34.9061C48.3156 35.9525 40.5514 44.3421 40.5514 54.5189H43.5514ZM56.8987 36.3978V117.669H59.8987V36.3978H56.8987ZM58.3987 119.169H65.7665V116.169H58.3987V119.169ZM67.2665 117.669V80.0846H64.2665V117.669H67.2665ZM65.7664 81.5846L83.856 81.5854L83.8561 78.5854L65.7665 78.5846L65.7664 81.5846ZM82.3645 80.2442C84.2908 98.3343 99.6866 112.466 118.33 112.466V109.466C101.23 109.466 87.1125 96.501 85.3476 79.9265L82.3645 80.2442ZM118.33 112.466C137.98 112.466 154.024 96.7682 154.499 77.2828L151.5 77.2097C151.065 95.0631 136.356 109.466 118.33 109.466V112.466ZM154.499 77.2462C154.499 34.9216 119.954 0.5 77.5 0.5V3.5C118.306 3.5 151.499 36.588 151.499 77.2462H154.499Z" fill="#EF5350"/>
<path d="M189.732 87.652L199.864 102H211.628L199.864 85.612C205.236 82.96 208.636 77.996 208.636 71.672C208.636 62.016 200.952 55.76 190.276 55.76H170.556V102H180.416V87.652H189.732ZM180.416 78.608V64.736H189.936C194.9 64.736 198.912 67.388 198.912 71.672C198.912 75.888 194.9 78.608 189.936 78.608H180.416ZM226.701 64.668H251.113V55.76H216.841V102H251.113V93.092H226.701V83.64H248.325V74.732H226.701V64.668ZM258.478 55.76V102H276.498C290.71 102 301.25 92.14 301.25 78.676C301.25 65.484 290.71 55.76 276.498 55.76H258.478ZM268.338 92.956V64.736H276.498C284.726 64.736 291.254 70.924 291.254 78.676C291.254 86.7 284.726 92.956 276.498 92.956H268.338ZM318.541 55.76H308.681V102H318.541V55.76Z" fill="#EF5350"/>
<path d="M385.663 55.76H375.803V74.936H355.131V55.76H345.271V102H355.131V83.912H375.803V102H385.663V55.76ZM404.604 64.668H429.016V55.76H394.744V102H429.016V93.092H404.604V83.64H426.228V74.732H404.604V64.668ZM468 93.092L471.604 102H482.008L462.152 55.488H452.904L432.98 102H443.452L447.056 93.092H468ZM464.396 84.184H450.66L457.46 67.252L464.396 84.184ZM521.168 93.228H497.572V55.76H487.712V102H521.168V93.228ZM555.805 64.736V55.76H515.073V64.736H530.509V102H540.369V64.736H555.805ZM601.948 55.76H592.088V74.936H571.416V55.76H561.556V102H571.416V83.912H592.088V102H601.948V55.76Z" fill="#263238"/>
</svg>
