<svg width="109" height="101" viewBox="0 0 109 101" fill="none" xmlns="http://www.w3.org/2000/svg">
<path fill-rule="evenodd" clip-rule="evenodd" d="M77.043 22.0938L73.0541 14.7019C71.3237 11.495 67.7847 9.46875 63.9154 9.46875H45.0856C41.2159 9.46875 37.6771 11.495 35.9469 14.7019L31.958 22.0938H20.4385C15.9217 22.0938 11.589 23.7571 8.39404 26.7143C5.20243 29.675 3.40747 33.6896 3.40747 37.8748V75.7498C3.40747 79.9352 5.20252 83.9499 8.39404 86.9103C11.5892 89.8677 15.9219 91.5309 20.4385 91.5309H88.5636C93.0804 91.5309 97.4131 89.8676 100.608 86.9103C103.8 83.9497 105.595 79.935 105.595 75.7498V37.8748C105.595 33.6895 103.8 29.6748 100.608 26.7143C97.4129 23.757 93.0803 22.0938 88.5636 22.0938H77.043ZM71.8928 26.6608C72.4683 27.731 73.647 28.4062 74.9378 28.4062H88.5628C91.2744 28.4062 93.873 29.4038 95.7876 31.1805C97.705 32.9545 98.7816 35.3625 98.7816 37.875V75.75C98.7816 78.2625 97.705 80.6705 95.7876 82.4445C93.873 84.2212 91.2743 85.2188 88.5628 85.2188H20.4378C17.7263 85.2188 15.1276 84.2212 13.213 82.4445C11.2956 80.6705 10.2191 78.2625 10.2191 75.75V37.875C10.2191 35.3625 11.2956 32.9545 13.213 31.1805C15.1276 29.4038 17.7263 28.4062 20.4378 28.4062H34.0628C35.3537 28.4062 36.5324 27.7309 37.1078 26.6608L42.0402 17.527C42.616 16.4569 43.7943 15.7816 45.0855 15.7816H63.9153C65.2065 15.7816 66.3849 16.4569 66.9607 17.527L71.893 26.6608H71.8928Z" fill="#F16A68"/>
<path fill-rule="evenodd" clip-rule="evenodd" d="M54.5 34.7188C41.3419 34.7188 30.6562 44.6201 30.6562 56.8125C30.6562 69.0049 41.3419 78.9062 54.5 78.9062C67.6581 78.9062 78.3437 69.0049 78.3437 56.8125C78.3437 44.6201 67.6581 34.7188 54.5 34.7188ZM54.5 41.0312C63.9012 41.0312 71.5312 48.1013 71.5312 56.8125C71.5312 65.5238 63.9012 72.5938 54.5 72.5938C45.0987 72.5938 37.4687 65.5238 37.4687 56.8125C37.4687 48.1013 45.0987 41.0312 54.5 41.0312Z" fill="#F16A68"/>
<path fill-rule="evenodd" clip-rule="evenodd" d="M20.4375 41.0312H27.25C29.1302 41.0312 30.6563 39.6172 30.6563 37.875C30.6563 36.1328 29.1302 34.7188 27.25 34.7188H20.4375C18.5573 34.7188 17.0312 36.1328 17.0312 37.875C17.0312 39.6172 18.5573 41.0312 20.4375 41.0312Z" fill="#F16A68"/>
</svg>
